<?xml version="1.0" encoding="utf-8"?>
<svg version="1.1" id="logo" xmlns="http://www.w3.org/2000/svg" xmlns:xlink="http://www.w3.org/1999/xlink" x="0px" y="0px"
	 fill="#fff"
     viewBox="0 0 251 73" xml:space="preserve">
<style type="text/css">
	.st0{fill:#FFFFFF;}
</style>
<g id="XMLID_27_">
	<path id="XMLID_28_" class="st0" d="M29.3,39.3h4.6c0.9,0,1.6,0.3,2.1,0.9c0.6,0.6,0.8,1.3,0.8,2.2S36.5,44,36,44.5
		c-0.6,0.6-1.3,0.8-2.1,0.8H26c-0.8,0-1.5-0.3-2-0.8c-0.5-0.6-0.8-1.3-0.8-2.1V24c0-0.9,0.3-1.6,0.9-2.1c0.6-0.6,1.3-0.8,2.2-0.8
		c0.9,0,1.6,0.3,2.1,0.8c0.6,0.6,0.8,1.3,0.8,2.1L29.3,39.3L29.3,39.3z"/>
	<path id="XMLID_30_" class="st0" d="M60.2,41.2c0.2,0.4,0.3,0.8,0.3,1.3c0,0.6-0.2,1.1-0.5,1.6s-0.8,0.8-1.3,1.1
		c-0.4,0.2-0.8,0.3-1.3,0.3c-0.6,0-1.1-0.2-1.6-0.5s-0.9-0.7-1.1-1.3L53,39.6h-6.3L45,43.7c-0.3,0.6-0.6,1-1.1,1.3s-1,0.5-1.6,0.5
		c-0.4,0-0.8-0.1-1.3-0.3c-0.6-0.3-1-0.6-1.3-1.1s-0.5-1-0.5-1.6c0-0.4,0.1-0.8,0.3-1.2L47.1,23c0.2-0.6,0.6-1,1.2-1.3
		s1.1-0.5,1.7-0.5c0.6,0,1.2,0.1,1.7,0.4s0.9,0.7,1.2,1.3L60.2,41.2z M48.8,34.3h2l-1-2.8L48.8,34.3z"/>
	<path id="XMLID_33_" class="st0" d="M81.3,42.4c0,0.9-0.3,1.6-0.9,2.1c-0.6,0.6-1.3,0.8-2.2,0.8c-1,0-1.8-0.4-2.4-1.1l-6.2-9.7v7.9
		c0,0.9-0.3,1.6-0.9,2.1c-0.6,0.6-1.3,0.8-2.2,0.8c-0.9,0-1.6-0.3-2.1-0.8c-0.6-0.6-0.8-1.3-0.8-2.1V24.1c0-0.9,0.3-1.6,0.9-2.1
		c0.6-0.6,1.3-0.8,2.2-0.8c0.6,0,1.1,0.1,1.5,0.4s0.8,0.6,1,1.1l6,9.3v-7.9c0-0.9,0.3-1.6,0.9-2.1c0.6-0.6,1.3-0.8,2.2-0.8
		c0.9,0,1.6,0.3,2.1,0.8c0.6,0.6,0.8,1.3,0.8,2.1L81.3,42.4L81.3,42.4z"/>
	<path id="XMLID_35_" class="st0" d="M96.7,21.1c1.7,0,3.2,0.3,4.7,1c1.5,0.6,2.8,1.5,3.9,2.6s2,2.4,2.6,3.9s1,3,1,4.7
		c0,1.7-0.3,3.2-1,4.7c-0.6,1.5-1.5,2.7-2.6,3.8s-2.4,2-3.9,2.6s-3,1-4.7,1s-3.2-0.3-4.7-1c-1.5-0.6-2.7-1.5-3.8-2.6
		c-1.1-1.1-2-2.4-2.6-3.8c-0.6-1.5-0.9-3-0.9-4.7s0.3-3.2,0.9-4.7s1.5-2.8,2.6-3.9s2.4-2,3.8-2.6C93.5,21.4,95.1,21.1,96.7,21.1z
		 M90.7,33.3c0,0.8,0.2,1.6,0.5,2.4c0.3,0.7,0.8,1.4,1.3,1.9c0.6,0.6,1.2,1,1.9,1.3c0.7,0.3,1.5,0.5,2.4,0.5c0.8,0,1.6-0.2,2.4-0.5
		c0.7-0.3,1.4-0.8,1.9-1.3c0.6-0.6,1-1.2,1.3-1.9s0.5-1.5,0.5-2.4s-0.2-1.6-0.5-2.4c-0.3-0.7-0.8-1.4-1.3-1.9
		c-0.6-0.6-1.2-1-1.9-1.3c-0.7-0.3-1.5-0.5-2.4-0.5c-0.8,0-1.6,0.2-2.4,0.5C93.7,28,93,28.4,92.5,29c-0.6,0.6-1,1.2-1.3,1.9
		C90.8,31.7,90.7,32.5,90.7,33.3z"/>
	<path id="XMLID_38_" class="st0" d="M131.6,32c0.9,0,1.6,0.3,2.1,0.9c0.6,0.6,0.8,1.3,0.8,2.2c0,1.3-0.3,2.6-0.9,3.8
		c-0.6,1.2-1.5,2.3-2.6,3.3s-2.4,1.7-3.8,2.3c-1.4,0.6-3,0.9-4.6,0.9c-1.7,0-3.2-0.3-4.7-1c-1.5-0.6-2.7-1.5-3.8-2.6
		c-1.1-1.1-2-2.4-2.6-3.8c-0.6-1.5-0.9-3-0.9-4.7s0.3-3.2,0.9-4.7s1.5-2.8,2.6-3.9s2.4-2,3.8-2.6c1.5-0.6,3-1,4.7-1
		c1.1,0,2.1,0.1,2.9,0.3c0.8,0.2,1.6,0.4,2.3,0.7c0.7,0.3,1.2,0.6,1.7,1s0.9,0.8,1.3,1.2c0.4,0.4,0.7,0.8,0.9,1.2
		c0.2,0.3,0.4,0.8,0.4,1.4c0,0.9-0.3,1.6-0.9,2.1c-0.6,0.6-1.3,0.8-2.2,0.8c-0.8,0-1.5-0.2-2-0.7c-0.7-0.7-1.4-1.2-2-1.4
		c-0.6-0.3-1.4-0.4-2.3-0.4c-0.8,0-1.6,0.2-2.4,0.5c-0.7,0.3-1.4,0.8-1.9,1.3c-0.6,0.6-1,1.2-1.3,1.9c-0.3,0.7-0.5,1.5-0.5,2.4
		s0.2,1.6,0.5,2.4c0.3,0.7,0.8,1.4,1.3,1.9c0.6,0.6,1.2,1,1.9,1.3c0.7,0.3,1.5,0.5,2.4,0.5c0.4,0,0.8,0,1.2-0.1s0.8-0.2,1.1-0.3
		c0.4-0.2,0.7-0.4,1-0.6c0.3-0.3,0.5-0.6,0.6-0.9h-2.4c-0.9,0-1.6-0.3-2.1-0.8s-0.8-1.2-0.8-2.1c0-0.9,0.3-1.6,0.8-2
		s1.2-0.6,2.1-0.6h7.4V32z"/>
	<path id="XMLID_40_" class="st0" d="M151.8,29.2c0,0.6-0.1,1.2-0.2,1.8c-0.2,0.6-0.4,1.2-0.7,1.7s-0.6,1-1,1.4s-0.8,0.7-1.2,1
		l3.8,5.5c0.3,0.5,0.5,1.1,0.5,1.7c0,0.5-0.1,0.9-0.3,1.4c-0.2,0.4-0.6,0.8-1,1.1c-0.5,0.4-1.1,0.5-1.7,0.5c-0.5,0-0.9-0.1-1.3-0.3
		c-0.4-0.2-0.8-0.6-1-1l-3.7-6.5h-0.9v4.9c0,0.9-0.3,1.6-0.9,2.1c-0.6,0.6-1.3,0.8-2.2,0.8s-1.6-0.3-2.1-0.8
		c-0.6-0.6-0.8-1.3-0.8-2.1V24c0-0.9,0.3-1.6,0.9-2.1c0.6-0.6,1.3-0.8,2.2-0.8h4.3c0.9,0,1.8,0.2,2.7,0.6s1.7,1,2.4,1.8
		c0.7,0.7,1.3,1.6,1.8,2.6C151.6,27.1,151.8,28.1,151.8,29.2z M142.9,27.1v4.4h1.3c0.3,0,0.5-0.1,0.8-0.3c0.2-0.1,0.4-0.3,0.6-0.6
		c0.2-0.3,0.2-0.7,0.2-1.3c0-0.5-0.1-0.9-0.2-1.2s-0.3-0.5-0.6-0.6c-0.2-0.2-0.5-0.2-0.8-0.3h-1.3V27.1z"/>
	<path id="XMLID_43_" class="st0" d="M176,41.2c0.2,0.4,0.3,0.8,0.3,1.3c0,0.6-0.2,1.1-0.5,1.6s-0.8,0.8-1.3,1.1
		c-0.4,0.2-0.8,0.3-1.3,0.3c-0.6,0-1.1-0.2-1.6-0.5s-0.9-0.7-1.1-1.3l-1.7-4.1h-6.3l-1.7,4.1c-0.3,0.6-0.6,1-1.1,1.3s-1,0.5-1.6,0.5
		c-0.4,0-0.8-0.1-1.3-0.3c-0.6-0.3-1-0.6-1.3-1.1s-0.5-1-0.5-1.6c0-0.4,0.1-0.8,0.3-1.2l7.6-18.3c0.2-0.6,0.6-1,1.2-1.3
		s1.1-0.5,1.7-0.5c0.6,0,1.2,0.1,1.7,0.4s0.9,0.7,1.2,1.3L176,41.2z M164.7,34.3h2l-1-2.8L164.7,34.3z"/>
	<path id="XMLID_49_" class="st0" d="M185.1,37.5v4.9c0,0.9-0.3,1.6-0.9,2.1c-0.6,0.6-1.3,0.8-2.2,0.8s-1.6-0.3-2.1-0.8
		c-0.6-0.6-0.8-1.3-0.8-2.1V24c0-0.9,0.3-1.6,0.9-2.1c0.6-0.6,1.3-0.8,2.2-0.8h4.3c0.9,0,1.8,0.2,2.7,0.6s1.7,1,2.4,1.8
		c0.7,0.7,1.3,1.6,1.8,2.6s0.7,2,0.7,3.2s-0.2,2.3-0.7,3.3c-0.5,1-1,1.9-1.8,2.6c-0.7,0.7-1.5,1.3-2.4,1.7s-1.8,0.6-2.7,0.6H185.1z
		 M185.1,27.1v4.4h1.3c0.3,0,0.5-0.1,0.8-0.3c0.2-0.1,0.4-0.3,0.6-0.6c0.2-0.3,0.2-0.7,0.2-1.3c0-0.5-0.1-0.9-0.2-1.2
		s-0.3-0.5-0.6-0.6c-0.2-0.2-0.5-0.2-0.8-0.3h-1.3V27.1z"/>
	<path id="XMLID_54_" class="st0" d="M202.3,30.7h6.6V24c0-0.9,0.3-1.6,0.9-2.1c0.6-0.6,1.3-0.8,2.2-0.8s1.6,0.3,2.1,0.8
		c0.6,0.6,0.8,1.3,0.8,2.1v18.4c0,0.9-0.3,1.6-0.9,2.1c-0.6,0.6-1.3,0.8-2.2,0.8s-1.6-0.3-2.1-0.8c-0.6-0.6-0.8-1.3-0.8-2.1v-5.7
		h-6.6v5.7c0,0.9-0.3,1.6-0.9,2.1c-0.6,0.6-1.3,0.8-2.2,0.8s-1.6-0.3-2.1-0.8c-0.6-0.6-0.8-1.3-0.8-2.1V24c0-0.9,0.3-1.6,0.9-2.1
		c0.6-0.6,1.3-0.8,2.2-0.8s1.6,0.3,2.1,0.8c0.6,0.6,0.8,1.3,0.8,2.1V30.7z"/>
	<path id="XMLID_56_" class="st0" d="M224.6,42.4c0,0.9-0.3,1.6-0.9,2.1c-0.6,0.6-1.3,0.8-2.2,0.8s-1.6-0.3-2.1-0.8
		c-0.6-0.6-0.8-1.3-0.8-2.1V24.1c0-0.9,0.3-1.6,0.9-2.1c0.6-0.6,1.3-0.8,2.2-0.8s1.6,0.3,2.1,0.8c0.6,0.6,0.8,1.3,0.8,2.1V42.4z"/>
	<path id="XMLID_58_" class="st0" d="M249,40.5c-1.1,1.5-2.5,2.7-4.2,3.6c-1.7,0.8-3.6,1.3-5.6,1.3c-1.7,0-3.2-0.3-4.7-1
		c-1.5-0.6-2.7-1.5-3.8-2.6s-2-2.4-2.6-3.8c-0.6-1.5-0.9-3-0.9-4.7s0.3-3.2,0.9-4.7c0.6-1.5,1.5-2.8,2.6-3.9s2.4-2,3.8-2.6
		c1.5-0.6,3-1,4.7-1c2,0,3.8,0.4,5.5,1.3s3.1,2.1,4.2,3.6c0.5,0.6,0.8,1.3,0.8,1.9c0,0.4-0.1,0.8-0.3,1.2c-0.2,0.4-0.4,0.7-0.7,1
		s-0.6,0.5-1,0.7s-0.8,0.2-1.2,0.2s-0.8-0.1-1.1-0.2c-0.4-0.2-0.7-0.4-1.1-0.8c-0.6-0.8-1.3-1.5-2.1-2c-0.9-0.5-1.8-0.8-2.9-0.8
		c-0.8,0-1.6,0.2-2.4,0.5c-0.7,0.3-1.4,0.8-1.9,1.3c-0.6,0.6-1,1.2-1.3,1.9c-0.3,0.7-0.5,1.5-0.5,2.4s0.2,1.6,0.5,2.4
		c0.3,0.7,0.8,1.4,1.3,1.9c0.6,0.6,1.2,1,1.9,1.3s1.5,0.5,2.4,0.5c1,0,2-0.2,2.9-0.7s1.6-1.1,2.1-1.9c0.7-0.7,1.4-1,2.2-1
		c0.4,0,0.8,0.1,1.2,0.3s0.7,0.4,1,0.7s0.5,0.6,0.7,1s0.2,0.8,0.2,1.2c0,0.3,0,0.5-0.1,0.8C249.3,40,249.2,40.2,249,40.5z"/>
</g>
<path id="XMLID_14_" class="st0" d="M19.2,26.4c-0.5-1-1-1.9-1.8-2.6c-0.7-0.7-1.5-1.3-2.4-1.8c-0.9-0.4-1.8-0.6-2.7-0.6H3.6
	c-0.9,0-1.6,0.3-2.2,0.8c-0.6,0.6-0.9,1.3-0.9,2.1v1c0,0,0.4,2.1,2.3,2.1c1.6,0,8,0,9,0l-0.3-0.1l0.7,0.1c-0.1,0-0.3,0-0.4,0
	l1.2,0.3c0.2,0.1,0.4,0.3,0.6,0.6c0.2,0.3,0.2,0.7,0.2,1.2c0,0.6-0.1,1-0.2,1.3c-0.2,0.3-0.3,0.5-0.6,0.6c-0.2,0.2-0.5,0.2-0.8,0.3
	H11c0,0-6-0.8-6,6.1v4.8c0,0.9,0.3,1.6,0.8,2.1c0.6,0.6,1.3,0.8,2.1,0.8c0.9,0,1.6-0.3,2.2-0.8c0.6-0.6,0.9-1.3,0.9-2.1v-4.9h1.3
	c0.9,0,1.8-0.2,2.7-0.6c0.9-0.4,1.7-1,2.4-1.7c0.7-0.7,1.3-1.6,1.8-2.6s0.7-2.1,0.7-3.3C19.9,28.5,19.7,27.4,19.2,26.4z"/>
<circle class="st0" cx="8" cy="51.2" r="3"/>
</svg>
